PathFileType	4	(X/Y/Z)	C:\Users\Basilio\Documents\Thesis Gigler\squatting_fais\c3dfiles\076\SLS_front_pre5\markers_experimental.trc
DataRate	CameraRate	NumFrames	NumMarkers	Units	OrigDataRate	OrigDataStartFrame	OrigNumFrames
200.000000	200.000000	4	61	mm	200.000000	0	1782
Frame#	Time	FHD			LBHD			RBHD			C7			T10			CLAV			LSHO			LUUPA			LMUPA			LDUPA			LLEP			LMEP			LRAD			LUL			LRFIN			RSHO			RUPA1			RMUPA			RDUPA			RLEP			RMEP			RRAD			RUL			RUFIN			LASI			RASI			USACR			LSACR			RSACR			LTHI1			LTHI2			LTHI3			LTHI4			LLFC			LMFC			LTIB1			LTIB2			LTIB3			LTIB4			LLMAL			LMMAL			LHEE			LMT1			LMT2			LMT5			RTHI			RTHI2			RTHI3			RTHI4			RLFC			RMFC			RTIB1			RTIB2			RTIB3			RTIB4			RLMAL			RMMAL			RHEE			RMT1			RMT2			RMT5			
		X1	Y1	Z1	X2	Y2	Z2	X3	Y3	Z3	X4	Y4	Z4	X5	Y5	Z5	X6	Y6	Z6	X7	Y7	Z7	X8	Y8	Z8	X9	Y9	Z9	X10	Y10	Z10	X11	Y11	Z11	X12	Y12	Z12	X13	Y13	Z13	X14	Y14	Z14	X15	Y15	Z15	X16	Y16	Z16	X17	Y17	Z17	X18	Y18	Z18	X19	Y19	Z19	X20	Y20	Z20	X21	Y21	Z21	X22	Y22	Z22	X23	Y23	Z23	X24	Y24	Z24	X25	Y25	Z25	X26	Y26	Z26	X27	Y27	Z27	X28	Y28	Z28	X29	Y29	Z29	X30	Y30	Z30	X31	Y31	Z31	X32	Y32	Z32	X33	Y33	Z33	X34	Y34	Z34	X35	Y35	Z35	X36	Y36	Z36	X37	Y37	Z37	X38	Y38	Z38	X39	Y39	Z39	X40	Y40	Z40	X41	Y41	Z41	X42	Y42	Z42	X43	Y43	Z43	X44	Y44	Z44	X45	Y45	Z45	X46	Y46	Z46	X47	Y47	Z47	X48	Y48	Z48	X49	Y49	Z49	X50	Y50	Z50	X51	Y51	Z51	X52	Y52	Z52	X53	Y53	Z53	X54	Y54	Z54	X55	Y55	Z55	X56	Y56	Z56	X57	Y57	Z57	X58	Y58	Z58	X59	Y59	Z59	X60	Y60	Z60	X61	Y61	Z61	

1	0	-171.9140167236328	1624.21484375	-878.508728027344	-304.3696594238282	1580.645874023438	-998.844665527344	-315.0200805664063	1583.23681640625	-847.4910888671877	-378.7981567382813	1455.59521484375	-922.5613403320315	-395.9595336914064	1131.846801757813	-932.0987548828127	-243.2095336914063	1379.605590820313	-920.2014160156252	-316.2850341796876	1410.200805664063	-1092.82666015625	-324.0751342773438	1264.5830078125	-1228.136962890625	-304.9179382324219	1220.677124023438	-1213.44482421875	-329.0044555664063	1208.45458984375	-1268.426879882813	-337.5552062988282	1159.428833007813	-1297.784057617188	-416.7009277343751	1140.621459960938	-1260.590942382813	-266.1882934570313	1035.069091796875	-1089.958740234375	-312.4406433105469	1009.781311035156	-1110.838256835938	-266.6899108886719	978.5703125000002	-1143.252075195313	-322.6525268554688	1401.850708007813	-757.2346801757814	-377.1142883300782	1272.234985351563	-619.9038696289064	-343.9380187988282	1234.802490234375	-614.6152343750001	-388.0403442382814	1216.2265625	-577.2839355468751	-380.5154418945313	1146.788696289063	-552.3496093750001	-449.310028076172	1128.40234375	-608.0821533203126	-329.8391113281251	1018.238525390625	-749.7232055664064	-278.6280822753907	1042.85498046875	-755.8547973632814	-285.3556213378907	986.2355957031252	-711.0693359375001	-230.9038391113282	948.508483886719	-1036.05859375	-228.6687622070313	952.0855102539065	-821.052673339844	-395.5711975097657	1029.561767578125	-928.2374267578127	-402.9720764160157	1000.569580078125	-955.8405761718752	-402.0482177734376	1000.0458984375	-899.4735107421877	-326.1265258789063	800.6438598632815	-1100.261352539063	-306.3406677246094	718.1233520507814	-1100.1298828125	-257.8216247558594	714.5747680664064	-1088.916748046875	-341.6307067871094	669.8395385742189	-1087.950927734375	-359.2956542968751	509.4711914062501	-1065.032958984375	-317.7441711425782	496.4983520507814	-953.7548828125002	-323.0362548828126	363.9411315917969	-1008.994506835938	-350.4076843261719	315.1441650390626	-1077.441284179688	-319.6229248046876	316.3842773437501	-1043.497680664063	-328.6150512695313	237.4464111328126	-1015.031555175781	-385.5191345214845	109.6554946899414	-1070.76611328125	-354.7813415527344	121.2142410278321	-992.6439208984377	-441.574676513672	96.80766296386722	-1024.41162109375	-239.9776306152344	54.90932464599611	-1007.4697265625	-233.8922576904297	49.74181747436525	-1045.366577148438	-256.7571411132813	42.32327270507813	-1095.34912109375	-340.9170837402344	712.6743774414064	-753.0701293945314	-308.8540344238282	653.3189697265626	-748.9781494140626	-274.6111450195313	653.4677124023439	-754.5275268554689	-341.0198974609376	578.6566772460939	-762.7137451171876	-349.3757324218751	518.0634765625001	-766.9439086914064	-312.0537414550782	504.9313964843751	-880.1513671875002	-313.5044860839844	384.6610412597657	-778.318054199219	-385.2486572265626	306.3611450195313	-756.5690917968751	-338.7524719238282	302.2821350097657	-761.6438598632814	-322.9164733886719	255.0775146484376	-792.268005371094	-385.0992126464845	117.2369155883789	-760.5282592773439	-361.4724426269532	127.7462158203125	-842.1864013671877	-442.3490600585939	103.7584228515625	-801.1782836914065	-247.1026763916016	52.58032989501955	-830.608581542969	-239.2059631347657	50.95378494262697	-785.3206176757815	-266.0350341796876	36.08486938476563	-730.1363525390626	
2	0.005	-170.562240600586	1622.884643554688	-878.2873535156252	-303.0182495117188	1580.882080078125	-998.9758911132815	-314.1398925781251	1583.440673828125	-847.582214355469	-378.8260192871094	1455.731567382813	-922.793395996094	-396.2051391601564	1131.83154296875	-932.2764892578127	-243.3759460449219	1379.556396484375	-920.2322998046877	-316.3723144531251	1410.244750976563	-1092.9169921875	-324.1117248535157	1264.604614257813	-1228.231201171875	-304.9972534179688	1220.673461914063	-1213.5078125	-329.0525512695313	1208.478881835938	-1268.56005859375	-338.4957580566407	1159.67919921875	-1298.324584960938	-416.7517089843751	1140.630493164063	-1260.769287109375	-266.2875061035157	1035.093994140625	-1090.027099609375	-312.5839538574219	1009.811218261719	-1110.945556640625	-266.7984619140626	978.575866699219	-1143.3623046875	-322.8982238769532	1401.874145507813	-757.3353271484376	-377.4201965332032	1272.235717773438	-620.0349731445314	-344.2774658203126	1234.777221679688	-614.7147827148439	-388.3658447265626	1216.2578125	-577.4221191406251	-380.8338928222657	1146.763671875	-552.4574584960939	-449.6250610351564	1128.385498046875	-608.1938476562501	-330.1322326660157	1018.308776855469	-749.8457641601564	-278.8842163085938	1042.874389648438	-755.9514770507814	-285.6716308593751	986.2189941406252	-711.1255493164064	-231.026596069336	948.5837402343752	-1036.16015625	-228.9008941650391	952.184509277344	-821.135925292969	-395.8024291992189	1029.516845703125	-928.3522949218752	-403.1077575683595	1000.524963378906	-955.997009277344	-402.2079162597657	1000.015258789063	-899.6773681640627	-326.2001647949219	800.594177246094	-1100.351196289063	-306.3808898925782	718.1661987304689	-1100.248901367188	-257.8413696289063	714.6243896484376	-1088.974609375	-341.6310424804688	669.8394775390626	-1088.09619140625	-359.2966613769532	509.4507446289064	-1065.111450195313	-317.8388366699219	496.5272521972657	-953.724792480469	-322.9911499023438	363.9626159667969	-1009.014770507813	-350.3466186523438	315.1362304687501	-1077.496459960938	-319.6383972167969	316.3587341308594	-1043.561401367188	-328.6078186035157	237.4456024169922	-1015.067993164063	-385.4858398437501	109.6457672119141	-1070.766967773438	-354.7776184082032	121.2216567993164	-992.675964355469	-442.006561279297	97.04287719726565	-1024.506469726563	-239.9776306152344	54.90932464599611	-1007.4697265625	-233.8973541259766	49.72813796997072	-1045.374389648438	-256.7597045898438	42.36443328857423	-1095.31787109375	-341.0901794433594	712.6801147460939	-753.1956787109376	-309.0355834960938	653.3515014648439	-749.0799560546876	-274.7946777343751	653.5335083007814	-754.5687866210939	-341.1603393554688	578.6630249023439	-762.8646240234376	-349.5004272460938	518.0487060546876	-767.0311279296876	-313.0347290039063	505.1847229003907	-880.516052246094	-313.5798034667969	384.7066040039064	-778.3270263671877	-385.3583374023439	306.3839721679688	-756.6375732421876	-338.7610168457032	302.3022460937501	-761.6851196289064	-322.9511108398438	255.0752258300782	-792.3089599609377	-385.0922851562501	117.2331695556641	-760.5464477539064	-361.4728393554688	127.762191772461	-842.200866699219	-442.3481750488282	103.7522277832032	-801.2385253906252	-247.1041564941407	52.56674194335939	-830.6132812500002	-239.2260437011719	50.95914459228517	-785.3367309570315	-266.0255126953126	36.07666397094727	-730.1256713867189	
3	0.01	-169.2163696289063	1621.561401367188	-878.1097412109377	-301.8118591308594	1581.007934570313	-999.0979614257815	-313.3463745117188	1583.670166015625	-847.7138671875002	-378.8684997558594	1455.859375	-922.9473876953127	-396.467010498047	1131.83935546875	-932.3869628906252	-243.5325927734376	1379.530883789063	-920.347595214844	-316.4895019531251	1410.268310546875	-1093.030151367188	-324.1059570312501	1264.631103515625	-1228.364624023438	-305.0163269042969	1220.6796875	-1213.62646484375	-329.0332336425782	1208.4814453125	-1268.647705078125	-337.4980468750001	1159.492065429688	-1297.993774414063	-416.772674560547	1140.659301757813	-1260.951416015625	-266.4102172851563	1035.127197265625	-1090.136962890625	-312.7624511718751	1009.830932617188	-1111.04345703125	-266.8913269042969	978.5874633789065	-1143.42431640625	-323.1639709472657	1401.869262695313	-757.4739990234376	-377.7536926269532	1272.245727539063	-620.2079467773439	-344.5487670898438	1234.771118164063	-614.9155273437501	-388.7126464843751	1216.2265625	-577.5716552734376	-381.1517333984376	1146.813720703125	-552.6339111328126	-449.9521484375001	1128.41552734375	-608.4421386718751	-330.3643798828126	1018.279296875	-750.0043945312501	-279.2162475585938	1042.865966796875	-756.0605468750001	-285.9631042480469	986.2466430664065	-711.2510986328126	-231.1187591552735	948.6397094726565	-1036.249389648438	-229.0791473388672	952.2417602539065	-821.220153808594	-395.950164794922	1029.466796875	-928.4909667968752	-403.2764892578126	1000.524658203125	-956.1260986328127	-402.3274841308595	999.9985351562502	-899.8619384765627	-326.2395019531251	800.6766357421877	-1100.431518554688	-306.4054565429688	718.1267700195314	-1100.336303710938	-257.7868957519532	714.6400146484376	-1089.084350585938	-341.6956176757813	669.6069946289064	-1088.4208984375	-359.2843933105469	509.397430419922	-1065.224243164063	-317.9357910156251	496.546600341797	-953.7730712890627	-323.0106201171876	363.9801940917969	-1009.110229492188	-350.3874206542969	315.1457214355469	-1077.57861328125	-319.6093444824219	316.3609924316407	-1043.602294921875	-328.6078186035157	237.4456024169922	-1015.067993164063	-385.5246582031251	109.6381530761719	-1070.79052734375	-354.7604370117188	121.2574615478516	-992.680847167969	-441.5466918945314	96.83264160156253	-1024.414306640625	-239.9892578125001	54.9540138244629	-1007.509582519531	-233.8922424316407	49.74181365966798	-1045.366455078125	-256.7793273925782	42.3215560913086	-1095.324462890625	-341.2388000488282	712.7010498046876	-753.3276367187501	-309.2225036621094	653.3888549804689	-749.1498413085939	-274.9841003417969	653.5239868164064	-754.6583862304689	-341.3113403320313	578.6932983398439	-762.9496459960939	-349.6049499511719	518.1057739257814	-767.1424560546876	-312.0644226074219	504.9575195312501	-880.268493652344	-313.6343078613282	384.6863708496095	-778.4110107421877	-385.381317138672	306.3582763671876	-756.7255249023439	-338.8257446289063	302.3223571777344	-761.6889648437501	-322.9839782714844	255.0994415283204	-792.3114013671877	-385.0926818847657	117.2481460571289	-760.5607299804689	-361.4382324218751	127.7561645507813	-842.1987304687502	-442.3740539550782	103.7937850952149	-801.223327636719	-247.1462860107422	52.52538681030275	-830.6455688476565	-239.2213287353516	50.9653663635254	-785.337585449219	-266.0416870117188	36.09538650512696	-730.1421508789064	
4	0.015	-167.7420806884766	1620.240844726563	-877.7717285156252	-300.5274353027344	1581.172241210938	-999.2189941406252	-312.3248596191407	1583.921020507813	-847.764587402344	-378.9483032226563	1456.00732421875	-923.1414184570315	-396.6512451171876	1131.85791015625	-932.513854980469	-243.7442169189454	1379.499267578125	-920.401062011719	-316.5684509277344	1410.281616210938	-1093.182495117188	-324.1612548828126	1264.613403320313	-1228.471069335938	-305.0837707519532	1220.663940429688	-1213.720947265625	-329.0883483886719	1208.466918945313	-1268.772583007813	-337.5259094238282	1159.486206054688	-1298.105102539063	-416.796356201172	1140.717529296875	-1261.180908203125	-266.5391540527344	1035.113525390625	-1090.214721679688	-312.9062500000001	1009.859802246094	-1111.17138671875	-266.9808654785157	978.6278076171877	-1143.518676757813	-323.4229431152344	1401.873657226563	-757.6463012695314	-378.0312500000001	1272.274169921875	-620.2830810546876	-344.9247131347657	1234.79443359375	-615.0684814453126	-388.9996032714845	1216.212280273438	-577.7212524414064	-381.4845275878907	1146.753662109375	-552.7005615234376	-450.3106689453126	1128.4404296875	-608.6394653320314	-330.6515808105469	1018.280212402344	-750.1640014648439	-279.5014038085938	1042.861938476563	-756.1963500976564	-286.2870483398438	986.251159667969	-711.3463134765626	-231.2554016113282	948.6697387695315	-1036.348754882813	-229.3057861328126	952.3122558593752	-821.2830810546877	-396.1264953613282	1029.471801757813	-928.6563110351565	-403.420379638672	1000.487365722656	-956.3237304687502	-402.5025024414064	999.9333496093752	-900.111999511719	-325.3375854492188	800.3286743164065	-1100.27587890625	-306.4493103027344	718.1742553710939	-1100.412231445313	-257.9016723632813	714.6716918945314	-1089.206420898438	-341.7424011230469	669.6041870117189	-1088.526611328125	-359.3494873046876	509.4568786621095	-1065.269165039063	-317.7760009765626	496.5789184570314	-953.928405761719	-323.0061340332032	363.9961853027344	-1009.117370605469	-350.3744201660157	315.1472167968751	-1077.683471679688	-319.7344055175782	316.5195312500001	-1043.712524414063	-328.6078796386719	237.4288635253907	-1015.099060058594	-385.4599914550782	109.6692886352539	-1070.77197265625	-354.7776184082032	121.2216415405274	-992.675964355469	-441.9853515625001	97.01357269287112	-1024.537231445313	-239.9964599609376	54.91646575927736	-1007.506652832031	-233.8235931396485	49.77047729492189	-1045.364135742188	-257.7764892578126	42.85467910766602	-1095.749877929688	-341.4180297851563	712.7604980468751	-753.4594116210939	-309.4188537597657	653.4225463867189	-749.2335815429689	-275.1623840332032	653.6159057617189	-754.6807861328126	-341.4342041015626	578.7108764648439	-763.0645141601564	-349.6882019042969	518.1090698242189	-767.2841796875001	-312.0104980468751	504.9288635253907	-880.3154296875002	-313.6701354980469	384.7260742187501	-778.4338989257815	-385.4613342285157	306.3917541503907	-756.8029785156251	-338.8894348144532	302.3645324707032	-761.7664794921876	-323.0095214843751	255.1043243408204	-792.3191528320315	-385.0477905273439	117.2391052246094	-760.6057739257814	-361.4954833984376	127.744140625	-842.2208251953127	-442.3712463378907	103.8097457885742	-801.2238769531252	-247.0844726562501	52.58064270019533	-830.5985107421877	-239.2143859863282	50.95224380493165	-785.3443603515627	-266.0247192382813	36.09728240966798	-730.1504516601564	
